<svg xmlns="http://www.w3.org/2000/svg" viewBox="0 0 756.77 3680.22"><defs><style>.cls-1{fill:none;stroke:#fff;stroke-width:2px;}</style></defs><g id="レイヤー_2" data-name="レイヤー 2"><g id="レイヤー_1-2" data-name="レイヤー 1"><path class="cls-1" d="M744.13,97.05c0-118-259.5-99.42-391-86.49-147.5,14.49-281.5,86.49-311,210s59.5,236.5,151,289,244.5,86.5,361.5,137c90.21,38.94,165.85,70.14,189.5,165.5,16,64.51,20,220-17.5,264-66.36,77.87-218.5,115-361,154-138.27,37.84-273.16,39.27-323.5,173.5-21,56-33.84,140.6,24,208.5,34.5,40.5,112.82,61,183,122,91.5,79.5,61,49,103,108.5,37.59,53.25,69.25,161,108.5,213,53.74,71.25,120.5,133,120.5,133s136.6,103.05,113,201c-26.89,111.64-137.2,157.56-243.5,201-104,42.5-148.52,64.56-253.5,114.5-92.5,44-179.51,104.7-192.5,210.5-14,114,14.71,161.17,48,241.5,23,55.5,66.77,166,147.5,243,58.84,56.14,90,63,126.5,103,44.12,48.35,65.5,177,65.5,177"/></g></g></svg>