<svg width="758" height="5718" viewBox="0 0 758 5718" fill="none" xmlns="http://www.w3.org/2000/svg">
<path d="M744.5 97.9996C744.5 -19.9993 485 -1.42629 353.5 11.5001C206 25.9993 72.0003 97.9996 42.5003 221.5C13.0003 344.999 102 458 193.5 510.501C285 563.001 438 597.001 555 647.499C645.211 686.435 720.845 717.635 744.5 812.999C760.5 877.501 764.5 1033 727 1077C660.639 1154.87 508.5 1192 366 1231C227.728 1268.84 92.835 1270.27 42.5003 1404.5C21.5003 1460.5 8.66282 1545.1 66.5003 1613C101 1653.5 179.324 1674.03 249.5 1735C341 1814.5 310.5 1784 352.5 1843.5C390.088 1896.75 421.748 2004.47 461 2056.5C514.744 2127.75 581.5 2189.5 581.5 2189.5C581.5 2189.5 718.095 2292.55 694.5 2390.5C667.607 2502.14 557.298 2548.06 451 2591.5C347 2634 302.479 2656.06 197.5 2706C105 2750 17.9933 2810.7 5.00036 2916.5C-8.99965 3030.5 19.7124 3077.67 53.0003 3158C76.0003 3213.5 119.765 3323.97 200.5 3401C259.339 3457.14 290.5 3464 327 3504C371.12 3552.35 392.5 3681 392.5 3681M379 4659C379 4659 397.843 4783.63 379 4848C350.982 4943.72 217.81 4930.27 147.5 5001C82.7597 5066.13 60.27 5083.49 48.0003 5174.5C38.0178 5248.54 54.5384 5304.32 108.5 5356C167.5 5412.5 352.482 5432.18 429 5453C502.5 5473 536.5 5489 582.5 5537.5C621.177 5578.28 611 5717.5 611 5717.5" stroke="white" stroke-width="2"/>
</svg>
